<svg width="49" height="49" viewBox="0 0 49 49" fill="none" xmlns="http://www.w3.org/2000/svg">
<circle cx="24.5" cy="24.5" r="23" fill="white" stroke="#0049A6" stroke-width="3"/>
<path d="M21.9877 21.6181C22.4593 21.5109 22.9083 21.4329 23.3345 21.3841C23.7699 21.3354 24.1871 21.311 24.5861 21.311C25.611 21.311 26.5134 21.4768 27.2933 21.8082C28.0824 22.1299 28.7399 22.5783 29.266 23.1535C29.8011 23.7286 30.2001 24.4061 30.4631 25.186C30.7352 25.9561 30.8712 26.7945 30.8712 27.7011C30.8712 28.8222 30.6899 29.8409 30.3271 30.7572C29.9643 31.6736 29.4609 32.4583 28.817 33.1115C28.1731 33.7549 27.4113 34.252 26.5315 34.603C25.6608 34.9539 24.7176 35.1294 23.7018 35.1294C23.1033 35.1294 22.5319 35.066 21.9877 34.9393C21.4526 34.8126 20.9493 34.642 20.4777 34.4275C20.006 34.2033 19.5707 33.9498 19.1717 33.6671C18.7726 33.3747 18.4144 33.0725 18.0969 32.7605L18.9948 31.4153C19.1853 31.1228 19.4392 30.9766 19.7566 30.9766C19.9562 30.9766 20.1738 31.0546 20.4096 31.2105C20.6454 31.3665 20.9175 31.5371 21.2259 31.7223C21.5433 31.8978 21.9152 32.0635 22.3414 32.2195C22.7677 32.3755 23.2756 32.4535 23.8651 32.4535C24.509 32.4535 25.0849 32.3414 25.5928 32.1171C26.1007 31.8929 26.527 31.581 26.8716 31.1813C27.2253 30.7719 27.4929 30.2844 27.6743 29.719C27.8557 29.1536 27.9463 28.5346 27.9463 27.862C27.9463 27.2478 27.8602 26.697 27.6879 26.2096C27.5246 25.7222 27.2752 25.3079 26.9396 24.9667C26.6131 24.6255 26.2005 24.3672 25.7017 24.1917C25.2028 24.0065 24.6269 23.9139 23.9739 23.9139C23.4932 23.9139 22.999 23.9577 22.4911 24.0455C21.9923 24.1332 21.4844 24.2697 20.9674 24.4549L19.1444 23.8992L20.7497 13.8389H30.2319V15.1988C30.2319 15.6472 30.1003 16.0128 29.8373 16.2955C29.5743 16.5782 29.1344 16.7195 28.5177 16.7195H22.7768L21.9877 21.6181Z" fill="#0049A6"/>
</svg>
