<svg width="50" height="12" viewBox="0 0 50 12" fill="none" xmlns="http://www.w3.org/2000/svg">
<g clip-path="url(#clip0_23_492)">
<path d="M7.65625 1H2.34375C1.04933 1 0 2.04933 0 3.34375V8.65625C0 9.95067 1.04933 11 2.34375 11H7.65625C8.95067 11 10 9.95067 10 8.65625V3.34375C10 2.04933 8.95067 1 7.65625 1Z" fill="white"/>
<path d="M7.65625 1H2.34375C1.04933 1 0 2.04933 0 3.34375V8.65625C0 9.95067 1.04933 11 2.34375 11H7.65625C8.95067 11 10 9.95067 10 8.65625V3.34375C10 2.04933 8.95067 1 7.65625 1Z" fill="#0A66C2"/>
<path d="M7.21543 9.50332H8.35879C8.40022 9.50332 8.43996 9.48686 8.46926 9.45757C8.49856 9.42828 8.51503 9.38854 8.51504 9.34711L8.51562 6.93141C8.51562 5.66879 8.24355 4.69828 6.76805 4.69828C6.20715 4.67742 5.6782 4.96656 5.39277 5.44937C5.39138 5.45172 5.38925 5.45354 5.38672 5.45457C5.3842 5.45559 5.3814 5.45576 5.37877 5.45505C5.37613 5.45434 5.3738 5.45278 5.37214 5.45062C5.37047 5.44846 5.36955 5.44581 5.36953 5.44309V4.97109C5.36953 4.92965 5.35307 4.88991 5.32377 4.86061C5.29446 4.83131 5.25472 4.81484 5.21328 4.81484H4.12824C4.0868 4.81484 4.04706 4.83131 4.01776 4.86061C3.98845 4.88991 3.97199 4.92965 3.97199 4.97109V9.34687C3.97199 9.38831 3.98845 9.42806 4.01776 9.45736C4.04706 9.48666 4.0868 9.50312 4.12824 9.50312H5.27152C5.31296 9.50312 5.35271 9.48666 5.38201 9.45736C5.41131 9.42806 5.42777 9.38831 5.42777 9.34687V7.18387C5.42777 6.57227 5.54379 5.97996 6.30203 5.97996C7.04949 5.97996 7.05918 6.6798 7.05918 7.22348V9.34707C7.05918 9.38851 7.07564 9.42825 7.10494 9.45756C7.13425 9.48686 7.17399 9.50332 7.21543 9.50332ZM1.48438 3.32922C1.48438 3.79266 1.8659 4.17398 2.32938 4.17398C2.79273 4.17395 3.17402 3.79238 3.17402 3.32902C3.17395 2.86566 2.79262 2.48438 2.32922 2.48438C1.8657 2.48438 1.48438 2.86578 1.48438 3.32922ZM1.75621 9.50332H2.90102C2.94246 9.50332 2.9822 9.48686 3.0115 9.45756C3.0408 9.42825 3.05727 9.38851 3.05727 9.34707V4.97109C3.05727 4.92965 3.0408 4.88991 3.0115 4.86061C2.9822 4.83131 2.94246 4.81484 2.90102 4.81484H1.75621C1.71477 4.81484 1.67503 4.83131 1.64573 4.86061C1.61642 4.88991 1.59996 4.92965 1.59996 4.97109V9.34707C1.59996 9.38851 1.61642 9.42825 1.64573 9.45756C1.67503 9.48686 1.71477 9.50332 1.75621 9.50332Z" fill="white"/>
</g>
<path d="M21.805 2.82L18.885 10H17.93L15.01 2.82H15.86C15.9533 2.82 16.0283 2.84333 16.085 2.89C16.145 2.93667 16.19 2.99667 16.22 3.07L18.16 7.95C18.2067 8.07 18.2517 8.20167 18.295 8.345C18.3417 8.48833 18.3833 8.63833 18.42 8.795C18.4533 8.63833 18.49 8.48833 18.53 8.345C18.57 8.20167 18.6133 8.07 18.66 7.95L20.595 3.07C20.6183 3.00333 20.66 2.945 20.72 2.895C20.7833 2.845 20.86 2.82 20.95 2.82H21.805ZM25.1047 6.895C25.1047 6.70167 25.0764 6.52333 25.0197 6.36C24.9664 6.19667 24.8864 6.055 24.7797 5.935C24.673 5.815 24.543 5.72167 24.3897 5.655C24.2364 5.58833 24.0597 5.555 23.8597 5.555C23.4497 5.555 23.1264 5.67333 22.8897 5.91C22.6564 6.14667 22.508 6.475 22.4447 6.895H25.1047ZM25.9097 9.275C25.7897 9.415 25.6514 9.53667 25.4947 9.64C25.338 9.74 25.1714 9.82167 24.9947 9.885C24.818 9.94833 24.6347 9.995 24.4447 10.025C24.258 10.055 24.073 10.07 23.8897 10.07C23.5397 10.07 23.2147 10.0117 22.9147 9.895C22.618 9.775 22.3597 9.60167 22.1397 9.375C21.923 9.145 21.753 8.86167 21.6297 8.525C21.5097 8.185 21.4497 7.795 21.4497 7.355C21.4497 7.00167 21.5047 6.67333 21.6147 6.37C21.7247 6.06333 21.8814 5.79667 22.0847 5.57C22.2914 5.34333 22.543 5.165 22.8397 5.035C23.1364 4.905 23.4697 4.84 23.8397 4.84C24.1497 4.84 24.4347 4.89167 24.6947 4.995C24.958 5.095 25.1847 5.24167 25.3747 5.435C25.5647 5.62833 25.713 5.86667 25.8197 6.15C25.9297 6.43333 25.9847 6.75667 25.9847 7.12C25.9847 7.27 25.968 7.37167 25.9347 7.425C25.9014 7.475 25.8397 7.5 25.7497 7.5H22.4197C22.4297 7.80333 22.473 8.06833 22.5497 8.295C22.6264 8.51833 22.7314 8.705 22.8647 8.855C23.0014 9.005 23.163 9.11667 23.3497 9.19C23.5364 9.26333 23.7447 9.3 23.9747 9.3C24.1914 9.3 24.378 9.275 24.5347 9.225C24.6947 9.175 24.8314 9.12167 24.9447 9.065C25.0614 9.005 25.158 8.95 25.2347 8.9C25.3147 8.85 25.3847 8.825 25.4447 8.825C25.5247 8.825 25.5864 8.855 25.6297 8.915L25.9097 9.275ZM27.9527 5.895C28.116 5.56167 28.3127 5.3 28.5427 5.11C28.7727 4.92 29.0493 4.825 29.3727 4.825C29.4827 4.825 29.586 4.83833 29.6827 4.865C29.7827 4.88833 29.8693 4.925 29.9427 4.975L29.8777 5.71C29.8543 5.8 29.7993 5.845 29.7127 5.845C29.666 5.845 29.596 5.83667 29.5027 5.82C29.4093 5.8 29.3093 5.79 29.2027 5.79C29.046 5.79 28.9077 5.81333 28.7877 5.86C28.6677 5.90333 28.5593 5.97 28.4627 6.06C28.3693 6.14667 28.286 6.255 28.2127 6.385C28.1393 6.51167 28.071 6.65667 28.0077 6.82V10H27.0327V4.92H27.5927C27.6993 4.92 27.771 4.94 27.8077 4.98C27.8477 5.01667 27.876 5.08333 27.8927 5.18L27.9527 5.895ZM31.7148 4.92V10H30.7398V4.92H31.7148ZM31.8998 3.35C31.8998 3.44 31.8814 3.52667 31.8448 3.61C31.8081 3.69 31.7581 3.76167 31.6948 3.825C31.6348 3.885 31.5631 3.93333 31.4798 3.97C31.3964 4.00333 31.3098 4.02 31.2198 4.02C31.1298 4.02 31.0448 4.00333 30.9648 3.97C30.8848 3.93333 30.8131 3.885 30.7498 3.825C30.6898 3.76167 30.6414 3.69 30.6048 3.61C30.5714 3.52667 30.5548 3.44 30.5548 3.35C30.5548 3.25667 30.5714 3.17 30.6048 3.09C30.6414 3.00667 30.6898 2.935 30.7498 2.875C30.8131 2.81167 30.8848 2.76333 30.9648 2.73C31.0448 2.69333 31.1298 2.675 31.2198 2.675C31.3098 2.675 31.3964 2.69333 31.4798 2.73C31.5631 2.76333 31.6348 2.81167 31.6948 2.875C31.7581 2.935 31.8081 3.00667 31.8448 3.09C31.8814 3.17 31.8998 3.25667 31.8998 3.35ZM33.4664 10V5.72L32.9364 5.655C32.8597 5.63833 32.7964 5.61167 32.7464 5.575C32.6997 5.535 32.6764 5.47833 32.6764 5.405V5H33.4664V4.755C33.4664 4.445 33.5147 4.16 33.6114 3.9C33.7114 3.63667 33.8597 3.41 34.0564 3.22C34.2564 3.03 34.5031 2.88333 34.7964 2.78C35.0931 2.67333 35.4397 2.62 35.8364 2.62C35.9631 2.62 36.0964 2.62833 36.2364 2.645C36.3764 2.66167 36.4947 2.68667 36.5914 2.72L36.5564 3.23C36.5497 3.29667 36.5081 3.33167 36.4314 3.335C36.3547 3.33833 36.2481 3.34 36.1114 3.34C35.8081 3.34 35.5497 3.37 35.3364 3.43C35.1231 3.49 34.9481 3.58 34.8114 3.7C34.6747 3.82 34.5747 3.97167 34.5114 4.155C34.4481 4.335 34.4164 4.545 34.4164 4.785V5H37.5064V10H36.5264V5.71H34.4464V10H33.4664ZM42.2824 6.895C42.2824 6.70167 42.2541 6.52333 42.1974 6.36C42.1441 6.19667 42.0641 6.055 41.9574 5.935C41.8508 5.815 41.7208 5.72167 41.5674 5.655C41.4141 5.58833 41.2374 5.555 41.0374 5.555C40.6274 5.555 40.3041 5.67333 40.0674 5.91C39.8341 6.14667 39.6858 6.475 39.6224 6.895H42.2824ZM43.0874 9.275C42.9674 9.415 42.8291 9.53667 42.6724 9.64C42.5158 9.74 42.3491 9.82167 42.1724 9.885C41.9958 9.94833 41.8124 9.995 41.6224 10.025C41.4358 10.055 41.2508 10.07 41.0674 10.07C40.7174 10.07 40.3924 10.0117 40.0924 9.895C39.7958 9.775 39.5374 9.60167 39.3174 9.375C39.1008 9.145 38.9308 8.86167 38.8074 8.525C38.6874 8.185 38.6274 7.795 38.6274 7.355C38.6274 7.00167 38.6824 6.67333 38.7924 6.37C38.9024 6.06333 39.0591 5.79667 39.2624 5.57C39.4691 5.34333 39.7208 5.165 40.0174 5.035C40.3141 4.905 40.6474 4.84 41.0174 4.84C41.3274 4.84 41.6124 4.89167 41.8724 4.995C42.1358 5.095 42.3624 5.24167 42.5524 5.435C42.7424 5.62833 42.8908 5.86667 42.9974 6.15C43.1074 6.43333 43.1624 6.75667 43.1624 7.12C43.1624 7.27 43.1458 7.37167 43.1124 7.425C43.0791 7.475 43.0174 7.5 42.9274 7.5H39.5974C39.6074 7.80333 39.6508 8.06833 39.7274 8.295C39.8041 8.51833 39.9091 8.705 40.0424 8.855C40.1791 9.005 40.3408 9.11667 40.5274 9.19C40.7141 9.26333 40.9224 9.3 41.1524 9.3C41.3691 9.3 41.5558 9.275 41.7124 9.225C41.8724 9.175 42.0091 9.12167 42.1224 9.065C42.2391 9.005 42.3358 8.95 42.4124 8.9C42.4924 8.85 42.5624 8.825 42.6224 8.825C42.7024 8.825 42.7641 8.855 42.8074 8.915L43.0874 9.275ZM47.4854 6.15C47.3254 5.94 47.1521 5.79333 46.9654 5.71C46.7821 5.62667 46.5754 5.585 46.3454 5.585C45.8987 5.585 45.5521 5.74667 45.3054 6.07C45.0621 6.39 44.9404 6.85833 44.9404 7.475C44.9404 7.79833 44.9671 8.075 45.0204 8.305C45.0771 8.53167 45.1571 8.71833 45.2604 8.865C45.3671 9.00833 45.4971 9.115 45.6504 9.185C45.8037 9.25167 45.9771 9.285 46.1704 9.285C46.4537 9.285 46.6987 9.22167 46.9054 9.095C47.1121 8.96833 47.3054 8.79 47.4854 8.56V6.15ZM48.4654 2.62V10H47.8754C47.7387 10 47.6537 9.935 47.6204 9.805L47.5354 9.22C47.3187 9.47667 47.0721 9.68333 46.7954 9.84C46.5221 9.99333 46.2054 10.07 45.8454 10.07C45.5554 10.07 45.2921 10.0133 45.0554 9.9C44.8221 9.78667 44.6221 9.62167 44.4554 9.405C44.2887 9.185 44.1604 8.91333 44.0704 8.59C43.9804 8.26667 43.9354 7.895 43.9354 7.475C43.9354 7.09833 43.9854 6.74833 44.0854 6.425C44.1854 6.10167 44.3304 5.82167 44.5204 5.585C44.7104 5.34833 44.9404 5.16333 45.2104 5.03C45.4804 4.89333 45.7854 4.825 46.1254 4.825C46.4321 4.825 46.6921 4.875 46.9054 4.975C47.1221 5.075 47.3154 5.21667 47.4854 5.4V2.62H48.4654Z" fill="#0A66C2"/>
<defs>
<clipPath id="clip0_23_492">
<rect width="10" height="10" fill="white" transform="translate(0 1)"/>
</clipPath>
</defs>
</svg>
