<svg width="98" height="18" viewBox="0 0 98 18" fill="none" xmlns="http://www.w3.org/2000/svg">
<path d="M7.52172 13.1916C7.60371 13.2736 7.64976 13.3849 7.64976 13.5009C7.64976 13.6168 7.60371 13.7281 7.52172 13.8101L6.97813 14.357C6.40326 14.9315 5.62372 15.2541 4.81099 15.2539C3.99826 15.2536 3.21892 14.9305 2.64442 14.3556C2.06991 13.7808 1.7473 13.0012 1.74756 12.1885C1.74782 11.3758 2.07092 10.5964 2.64578 10.0219L3.96485 8.70286C4.51702 8.15025 5.2595 7.82954 6.04036 7.80636C6.82122 7.78318 7.58141 8.05928 8.16539 8.57817C8.20848 8.61638 8.24363 8.6627 8.26881 8.71449C8.294 8.76627 8.30874 8.82252 8.3122 8.88C8.31565 8.93749 8.30775 8.99509 8.28894 9.04952C8.27013 9.10395 8.24079 9.15414 8.20258 9.19724C8.16437 9.24032 8.11805 9.27547 8.06627 9.30066C8.01448 9.32585 7.95824 9.34059 7.90075 9.34404C7.84327 9.34749 7.78566 9.33959 7.73123 9.32078C7.6768 9.30197 7.62661 9.27263 7.58352 9.23442C7.16642 8.86403 6.62359 8.66696 6.06602 8.68353C5.50845 8.7001 4.97827 8.92905 4.58391 9.32356L3.26485 10.641C2.85453 11.0513 2.62401 11.6078 2.62401 12.1881C2.62401 12.7684 2.85453 13.3249 3.26485 13.7352C3.67516 14.1455 4.23168 14.376 4.81195 14.376C5.39223 14.376 5.94875 14.1455 6.35906 13.7352L6.90266 13.1916C6.94329 13.1509 6.99154 13.1187 7.04465 13.0966C7.09776 13.0746 7.1547 13.0633 7.21219 13.0633C7.26968 13.0633 7.32661 13.0746 7.37973 13.0966C7.43284 13.1187 7.48109 13.1509 7.52172 13.1916ZM11.3542 5.64473C10.7793 5.07107 10.0002 4.7489 9.18805 4.7489C8.37586 4.7489 7.59683 5.07107 7.02188 5.64473L6.47828 6.18888C6.39626 6.27097 6.35021 6.38228 6.35026 6.49833C6.35032 6.61437 6.39646 6.72564 6.47856 6.80766C6.56065 6.88968 6.67196 6.93573 6.78801 6.93568C6.90405 6.93563 7.01533 6.88948 7.09735 6.80739L7.64094 6.2638C8.05126 5.85348 8.60777 5.62296 9.18805 5.62296C9.76833 5.62296 10.3248 5.85348 10.7352 6.2638C11.1455 6.67412 11.376 7.23063 11.376 7.81091C11.376 8.39119 11.1455 8.9477 10.7352 9.35802L9.4161 10.6782C9.02152 11.0725 8.49123 11.3011 7.93366 11.3174C7.37609 11.3336 6.83337 11.1363 6.41649 10.7657C6.32946 10.6885 6.21535 10.6491 6.09925 10.6561C5.98316 10.663 5.87459 10.7158 5.79742 10.8029C5.72026 10.8899 5.68083 11.004 5.68781 11.1201C5.69478 11.2362 5.74759 11.3448 5.83461 11.4219C6.41845 11.941 7.17857 12.2172 7.95943 12.1943C8.74028 12.1713 9.48284 11.8508 10.0352 11.2983L11.3542 9.97927C11.9282 9.40427 12.2506 8.62501 12.2506 7.81255C12.2506 7.00009 11.9282 6.22082 11.3542 5.64583V5.64473Z" fill="black"/>
<path d="M22.4115 13.022V14H17.5335V5.402H18.6915V13.022H22.4115ZM24.5736 7.922V14H23.5056V7.922H24.5736ZM24.8016 6.014C24.8016 6.118 24.7796 6.216 24.7356 6.308C24.6956 6.396 24.6396 6.476 24.5676 6.548C24.4996 6.616 24.4176 6.67 24.3216 6.71C24.2296 6.75 24.1316 6.77 24.0276 6.77C23.9236 6.77 23.8256 6.75 23.7336 6.71C23.6456 6.67 23.5676 6.616 23.4996 6.548C23.4316 6.476 23.3776 6.396 23.3376 6.308C23.2976 6.216 23.2776 6.118 23.2776 6.014C23.2776 5.91 23.2976 5.812 23.3376 5.72C23.3776 5.624 23.4316 5.542 23.4996 5.474C23.5676 5.402 23.6456 5.346 23.7336 5.306C23.8256 5.266 23.9236 5.246 24.0276 5.246C24.1316 5.246 24.2296 5.266 24.3216 5.306C24.4176 5.346 24.4996 5.402 24.5676 5.474C24.6396 5.542 24.6956 5.624 24.7356 5.72C24.7796 5.812 24.8016 5.91 24.8016 6.014ZM27.3364 8.804C27.4684 8.656 27.6084 8.522 27.7564 8.402C27.9044 8.282 28.0604 8.18 28.2244 8.096C28.3924 8.008 28.5684 7.942 28.7524 7.898C28.9404 7.85 29.1424 7.826 29.3584 7.826C29.6904 7.826 29.9824 7.882 30.2344 7.994C30.4904 8.102 30.7024 8.258 30.8704 8.462C31.0424 8.662 31.1724 8.904 31.2604 9.188C31.3484 9.472 31.3924 9.786 31.3924 10.13V14H30.3184V10.13C30.3184 9.67 30.2124 9.314 30.0004 9.062C29.7924 8.806 29.4744 8.678 29.0464 8.678C28.7304 8.678 28.4344 8.754 28.1584 8.906C27.8864 9.058 27.6344 9.264 27.4024 9.524V14H26.3284V7.922H26.9704C27.1224 7.922 27.2164 7.996 27.2524 8.144L27.3364 8.804ZM34.0938 5.162V10.364H34.3698C34.4498 10.364 34.5158 10.354 34.5678 10.334C34.6238 10.31 34.6818 10.264 34.7418 10.196L36.6618 8.138C36.7178 8.07 36.7758 8.018 36.8358 7.982C36.8998 7.942 36.9838 7.922 37.0878 7.922H38.0538L35.8158 10.304C35.7078 10.44 35.5918 10.546 35.4678 10.622C35.5398 10.67 35.6038 10.726 35.6598 10.79C35.7198 10.85 35.7758 10.92 35.8278 11L38.2038 14H37.2498C37.1578 14 37.0778 13.986 37.0098 13.958C36.9458 13.926 36.8898 13.87 36.8418 13.79L34.8438 11.3C34.7838 11.216 34.7238 11.162 34.6638 11.138C34.6078 11.11 34.5198 11.096 34.3998 11.096H34.0938V14H33.0198V5.162H34.0938ZM42.8417 10.298C42.8417 10.05 42.8057 9.824 42.7337 9.62C42.6657 9.412 42.5637 9.234 42.4277 9.086C42.2957 8.934 42.1337 8.818 41.9417 8.738C41.7497 8.654 41.5317 8.612 41.2877 8.612C40.7757 8.612 40.3697 8.762 40.0697 9.062C39.7737 9.358 39.5897 9.77 39.5177 10.298H42.8417ZM43.7057 13.148C43.5737 13.308 43.4157 13.448 43.2317 13.568C43.0477 13.684 42.8497 13.78 42.6377 13.856C42.4297 13.932 42.2137 13.988 41.9897 14.024C41.7657 14.064 41.5437 14.084 41.3237 14.084C40.9037 14.084 40.5157 14.014 40.1597 13.874C39.8077 13.73 39.5017 13.522 39.2417 13.25C38.9857 12.974 38.7857 12.634 38.6417 12.23C38.4977 11.826 38.4257 11.362 38.4257 10.838C38.4257 10.414 38.4897 10.018 38.6177 9.65C38.7497 9.282 38.9377 8.964 39.1817 8.696C39.4257 8.424 39.7237 8.212 40.0757 8.06C40.4277 7.904 40.8237 7.826 41.2637 7.826C41.6277 7.826 41.9637 7.888 42.2717 8.012C42.5837 8.132 42.8517 8.308 43.0757 8.54C43.3037 8.768 43.4817 9.052 43.6097 9.392C43.7377 9.728 43.8017 10.112 43.8017 10.544C43.8017 10.712 43.7837 10.824 43.7477 10.88C43.7117 10.936 43.6437 10.964 43.5437 10.964H39.4817C39.4937 11.348 39.5457 11.682 39.6377 11.966C39.7337 12.25 39.8657 12.488 40.0337 12.68C40.2017 12.868 40.4017 13.01 40.6337 13.106C40.8657 13.198 41.1257 13.244 41.4137 13.244C41.6817 13.244 41.9117 13.214 42.1037 13.154C42.2997 13.09 42.4677 13.022 42.6077 12.95C42.7477 12.878 42.8637 12.812 42.9557 12.752C43.0517 12.688 43.1337 12.656 43.2017 12.656C43.2897 12.656 43.3577 12.69 43.4057 12.758L43.7057 13.148ZM49.0736 9.368C48.8736 9.1 48.6576 8.914 48.4256 8.81C48.1936 8.702 47.9336 8.648 47.6456 8.648C47.0816 8.648 46.6476 8.85 46.3436 9.254C46.0396 9.658 45.8876 10.234 45.8876 10.982C45.8876 11.378 45.9216 11.718 45.9896 12.002C46.0576 12.282 46.1576 12.514 46.2896 12.698C46.4216 12.878 46.5836 13.01 46.7756 13.094C46.9676 13.178 47.1856 13.22 47.4296 13.22C47.7816 13.22 48.0876 13.14 48.3476 12.98C48.6116 12.82 48.8536 12.594 49.0736 12.302V9.368ZM50.1416 5.162V14H49.5056C49.3536 14 49.2576 13.926 49.2176 13.778L49.1216 13.04C48.8616 13.352 48.5656 13.604 48.2336 13.796C47.9016 13.988 47.5176 14.084 47.0816 14.084C46.7336 14.084 46.4176 14.018 46.1336 13.886C45.8496 13.75 45.6076 13.552 45.4076 13.292C45.2076 13.032 45.0536 12.708 44.9456 12.32C44.8376 11.932 44.7836 11.486 44.7836 10.982C44.7836 10.534 44.8436 10.118 44.9636 9.734C45.0836 9.346 45.2556 9.01 45.4796 8.726C45.7036 8.442 45.9776 8.22 46.3016 8.06C46.6296 7.896 46.9976 7.814 47.4056 7.814C47.7776 7.814 48.0956 7.878 48.3596 8.006C48.6276 8.13 48.8656 8.304 49.0736 8.528V5.162H50.1416ZM52.9564 7.922V14H51.8884V7.922H52.9564ZM53.1844 6.014C53.1844 6.118 53.1624 6.216 53.1184 6.308C53.0784 6.396 53.0224 6.476 52.9504 6.548C52.8824 6.616 52.8004 6.67 52.7044 6.71C52.6124 6.75 52.5144 6.77 52.4104 6.77C52.3064 6.77 52.2084 6.75 52.1164 6.71C52.0284 6.67 51.9504 6.616 51.8824 6.548C51.8144 6.476 51.7604 6.396 51.7204 6.308C51.6804 6.216 51.6604 6.118 51.6604 6.014C51.6604 5.91 51.6804 5.812 51.7204 5.72C51.7604 5.624 51.8144 5.542 51.8824 5.474C51.9504 5.402 52.0284 5.346 52.1164 5.306C52.2084 5.266 52.3064 5.246 52.4104 5.246C52.5144 5.246 52.6124 5.266 52.7044 5.306C52.8004 5.346 52.8824 5.402 52.9504 5.474C53.0224 5.542 53.0784 5.624 53.1184 5.72C53.1624 5.812 53.1844 5.91 53.1844 6.014ZM55.7192 8.804C55.8512 8.656 55.9912 8.522 56.1392 8.402C56.2872 8.282 56.4432 8.18 56.6072 8.096C56.7752 8.008 56.9512 7.942 57.1352 7.898C57.3232 7.85 57.5252 7.826 57.7412 7.826C58.0732 7.826 58.3652 7.882 58.6172 7.994C58.8732 8.102 59.0852 8.258 59.2532 8.462C59.4252 8.662 59.5552 8.904 59.6432 9.188C59.7312 9.472 59.7752 9.786 59.7752 10.13V14H58.7012V10.13C58.7012 9.67 58.5952 9.314 58.3832 9.062C58.1752 8.806 57.8572 8.678 57.4292 8.678C57.1132 8.678 56.8172 8.754 56.5412 8.906C56.2692 9.058 56.0172 9.264 55.7852 9.524V14H54.7112V7.922H55.3532C55.5052 7.922 55.5992 7.996 55.6352 8.144L55.7192 8.804ZM67.263 9.86C67.595 9.86 67.887 9.816 68.139 9.728C68.395 9.64 68.609 9.518 68.781 9.362C68.957 9.202 69.089 9.012 69.177 8.792C69.265 8.572 69.309 8.33 69.309 8.066C69.309 7.518 69.139 7.09 68.799 6.782C68.463 6.474 67.951 6.32 67.263 6.32H65.883V9.86H67.263ZM67.263 5.402C67.807 5.402 68.279 5.466 68.679 5.594C69.083 5.718 69.417 5.896 69.681 6.128C69.945 6.36 70.141 6.64 70.269 6.968C70.401 7.296 70.467 7.662 70.467 8.066C70.467 8.466 70.397 8.832 70.257 9.164C70.117 9.496 69.911 9.782 69.639 10.022C69.371 10.262 69.037 10.45 68.637 10.586C68.241 10.718 67.783 10.784 67.263 10.784H65.883V14H64.725V5.402H67.263ZM72.5768 9.14C72.7688 8.724 73.0048 8.4 73.2848 8.168C73.5648 7.932 73.9068 7.814 74.3108 7.814C74.4388 7.814 74.5608 7.828 74.6768 7.856C74.7968 7.884 74.9028 7.928 74.9948 7.988L74.9168 8.786C74.8928 8.886 74.8328 8.936 74.7368 8.936C74.6808 8.936 74.5988 8.924 74.4908 8.9C74.3828 8.876 74.2608 8.864 74.1248 8.864C73.9328 8.864 73.7608 8.892 73.6088 8.948C73.4608 9.004 73.3268 9.088 73.2068 9.2C73.0908 9.308 72.9848 9.444 72.8888 9.608C72.7968 9.768 72.7128 9.952 72.6368 10.16V14H71.5628V7.922H72.1748C72.2908 7.922 72.3708 7.944 72.4148 7.988C72.4588 8.032 72.4888 8.108 72.5048 8.216L72.5768 9.14ZM78.2498 7.826C78.6938 7.826 79.0938 7.9 79.4498 8.048C79.8058 8.196 80.1098 8.406 80.3618 8.678C80.6138 8.95 80.8058 9.28 80.9378 9.668C81.0738 10.052 81.1418 10.482 81.1418 10.958C81.1418 11.438 81.0738 11.87 80.9378 12.254C80.8058 12.638 80.6138 12.966 80.3618 13.238C80.1098 13.51 79.8058 13.72 79.4498 13.868C79.0938 14.012 78.6938 14.084 78.2498 14.084C77.8018 14.084 77.3978 14.012 77.0378 13.868C76.6818 13.72 76.3778 13.51 76.1258 13.238C75.8738 12.966 75.6798 12.638 75.5438 12.254C75.4118 11.87 75.3458 11.438 75.3458 10.958C75.3458 10.482 75.4118 10.052 75.5438 9.668C75.6798 9.28 75.8738 8.95 76.1258 8.678C76.3778 8.406 76.6818 8.196 77.0378 8.048C77.3978 7.9 77.8018 7.826 78.2498 7.826ZM78.2498 13.25C78.8498 13.25 79.2978 13.05 79.5938 12.65C79.8898 12.246 80.0378 11.684 80.0378 10.964C80.0378 10.24 79.8898 9.676 79.5938 9.272C79.2978 8.868 78.8498 8.666 78.2498 8.666C77.9458 8.666 77.6798 8.718 77.4518 8.822C77.2278 8.926 77.0398 9.076 76.8878 9.272C76.7398 9.468 76.6278 9.71 76.5518 9.998C76.4798 10.282 76.4438 10.604 76.4438 10.964C76.4438 11.684 76.5918 12.246 76.8878 12.65C77.1878 13.05 77.6418 13.25 78.2498 13.25ZM82.7755 14V8.834L82.1035 8.756C82.0155 8.736 81.9455 8.706 81.8935 8.666C81.8415 8.622 81.8155 8.56 81.8155 8.48V8.042H82.7755V7.706C82.7755 7.334 82.8335 6.994 82.9495 6.686C83.0655 6.374 83.2395 6.106 83.4715 5.882C83.7035 5.658 83.9915 5.484 84.3355 5.36C84.6835 5.236 85.0855 5.174 85.5415 5.174C85.6935 5.174 85.8495 5.184 86.0095 5.204C86.1695 5.224 86.3075 5.254 86.4235 5.294L86.3815 5.852C86.3775 5.892 86.3615 5.92 86.3335 5.936C86.3095 5.952 86.2755 5.962 86.2315 5.966C86.1875 5.97 86.1315 5.972 86.0635 5.972C85.9995 5.968 85.9255 5.966 85.8415 5.966C85.1295 5.966 84.6135 6.114 84.2935 6.41C83.9735 6.702 83.8135 7.144 83.8135 7.736V8.042H87.4855V14H86.4115V8.816H83.8435V14H82.7755ZM90.3387 5.162V14H89.2707V5.162H90.3387ZM96.1386 10.298C96.1386 10.05 96.1026 9.824 96.0306 9.62C95.9626 9.412 95.8606 9.234 95.7246 9.086C95.5926 8.934 95.4306 8.818 95.2386 8.738C95.0466 8.654 94.8286 8.612 94.5846 8.612C94.0726 8.612 93.6666 8.762 93.3666 9.062C93.0706 9.358 92.8866 9.77 92.8146 10.298H96.1386ZM97.0026 13.148C96.8706 13.308 96.7126 13.448 96.5286 13.568C96.3446 13.684 96.1466 13.78 95.9346 13.856C95.7266 13.932 95.5106 13.988 95.2866 14.024C95.0626 14.064 94.8406 14.084 94.6206 14.084C94.2006 14.084 93.8126 14.014 93.4566 13.874C93.1046 13.73 92.7986 13.522 92.5386 13.25C92.2826 12.974 92.0826 12.634 91.9386 12.23C91.7946 11.826 91.7226 11.362 91.7226 10.838C91.7226 10.414 91.7866 10.018 91.9146 9.65C92.0466 9.282 92.2346 8.964 92.4786 8.696C92.7226 8.424 93.0206 8.212 93.3726 8.06C93.7246 7.904 94.1206 7.826 94.5606 7.826C94.9246 7.826 95.2606 7.888 95.5686 8.012C95.8806 8.132 96.1486 8.308 96.3726 8.54C96.6006 8.768 96.7786 9.052 96.9066 9.392C97.0346 9.728 97.0986 10.112 97.0986 10.544C97.0986 10.712 97.0806 10.824 97.0446 10.88C97.0086 10.936 96.9406 10.964 96.8406 10.964H92.7786C92.7906 11.348 92.8426 11.682 92.9346 11.966C93.0306 12.25 93.1626 12.488 93.3306 12.68C93.4986 12.868 93.6986 13.01 93.9306 13.106C94.1626 13.198 94.4226 13.244 94.7106 13.244C94.9786 13.244 95.2086 13.214 95.4006 13.154C95.5966 13.09 95.7646 13.022 95.9046 12.95C96.0446 12.878 96.1606 12.812 96.2526 12.752C96.3486 12.688 96.4306 12.656 96.4986 12.656C96.5866 12.656 96.6546 12.69 96.7026 12.758L97.0026 13.148Z" fill="#131313"/>
</svg>
